<?xml version="1.0" encoding="UTF-8"?><svg id="Layer_1" xmlns="http://www.w3.org/2000/svg" viewBox="0 0 805.28 216.2"><defs><style>.cls-1{fill:#ffffff;}</style></defs><path class="cls-1" d="M155.91,54.04c-8.44,0-16.58,1.94-23.93,5.57-20.19-9.92-45.33-6.51-62.1,10.26-10.21,10.21-15.83,23.79-15.83,38.22s5.62,28.01,15.83,38.22c10.54,10.54,24.38,15.81,38.22,15.81,8.19,0,16.37-1.86,23.88-5.55,7.35,3.64,15.49,5.57,23.93,5.57,14.44,0,28.01-5.62,38.22-15.83,21.08-21.08,21.08-55.37,0-76.45-10.21-10.21-23.78-15.83-38.22-15.83ZM155.91,66.54c11.1,0,21.54,4.32,29.38,12.17,6.51,6.51,10.4,14.66,11.68,23.14h-35.18c-1.38-12.07-6.74-23.25-15.46-31.97-.6-.6-1.21-1.18-1.83-1.74,3.67-1.04,7.5-1.59,11.42-1.59ZM132,142.09c-1.93-1.37-3.77-2.9-5.48-4.6-7.85-7.85-12.17-18.29-12.17-29.38s4.32-21.54,12.17-29.39h0c1.71-1.71,3.54-3.24,5.48-4.6,1.93,1.36,3.77,2.88,5.49,4.6,7.85,7.85,12.17,18.29,12.17,29.39s-4.32,21.54-12.17,29.38c-1.72,1.72-3.56,3.25-5.49,4.6ZM78.71,78.71c11.02-11.02,26.75-14.54,40.78-10.56-.61.56-1.22,1.13-1.81,1.72,0,0,0,0,0,0-8.72,8.72-14.08,19.9-15.46,31.97h-35.21c1.31-8.73,5.35-16.78,11.7-23.14ZM78.71,137.48c-6.36-6.36-10.4-14.41-11.7-23.13h35.21c1.38,12.07,6.74,23.25,15.46,31.97.59.59,1.2,1.16,1.81,1.72-14.03,3.97-29.75.46-40.78-10.56ZM185.29,137.48c-7.85,7.85-18.29,12.17-29.39,12.17-3.92,0-7.75-.55-11.42-1.59.62-.57,1.23-1.14,1.83-1.74,8.72-8.72,14.08-19.9,15.46-31.97h35.18c-1.28,8.47-5.17,16.62-11.68,23.13Z"/><path class="cls-1" d="M317.62,91.77c0-16.95-11.04-25.43-33.12-25.43h-39.66v83.28h13.65v-32.42h27.23c.74,0,1.38-.04,1.92-.12l18.78,32.54h15.86l-20.76-35.34c10.73-3.81,16.1-11.31,16.1-22.51ZM283.33,105.53h-24.84v-27.53h25.08c7,0,12.05,1.07,15.16,3.21,3.11,2.14,4.67,5.62,4.67,10.44,0,9.25-6.69,13.88-20.06,13.88Z"/><path class="cls-1" d="M368.15,66.34l-39.54,83.28h14.81l9.8-21.46h44.32l10.03,21.46h15.4l-39.54-83.28h-15.28ZM358.35,116.84l17.15-36.97,17.15,36.97h-34.29Z"/><path class="cls-1" d="M504.67,77.07c-8.16-7.15-19.94-10.73-35.34-10.73h-36.04v83.28h33.36c16.1,0,28.5-3.6,37.21-10.79,8.71-7.19,13.06-17.47,13.06-30.85s-4.08-23.75-12.25-30.91ZM493.41,130.14c-5.95,4.98-14.72,7.46-26.3,7.46h-19.71v-59.25h22.04c21.93,0,32.89,9.88,32.89,29.63,0,9.8-2.97,17.19-8.92,22.16Z"/><rect class="cls-1" x="536.86" y="66.34" width="14.11" height="83.28"/><path class="cls-1" d="M641.6,116.26c0,7.85-2.06,13.7-6.18,17.55-4.12,3.85-10.5,5.77-19.13,5.77s-14.89-1.92-19.01-5.77c-4.12-3.85-6.18-9.7-6.18-17.55v-49.92h-14.11v49.22c0,12.21,3.3,21.29,9.91,27.23,6.61,5.95,16.41,8.92,29.39,8.92s22.9-2.97,29.51-8.92c6.61-5.95,9.91-15.03,9.91-27.23v-49.22h-14.11v49.92Z"/><path class="cls-1" d="M744.24,110.49c-4.67-4-11.94-6.74-21.81-8.22l-16.45-2.45c-6.84-1.09-11.61-2.53-14.29-4.32-2.68-1.79-4.02-4.47-4.02-8.05s2.08-6.61,6.24-8.63c4.16-2.02,10.05-3.03,17.67-3.03,6.77,0,12.01.99,15.75,2.97s6.53,5.27,8.4,9.86l13.41-2.1c-2.18-7.77-6.24-13.43-12.19-16.97-5.95-3.54-14.37-5.31-25.25-5.31-11.98,0-21.33,2.08-28.05,6.24-6.73,4.16-10.09,9.93-10.09,17.32s2.41,12.64,7.23,16.45c4.82,3.81,12.87,6.53,24.14,8.16l14.58,2.22c6.07.86,10.48,2.27,13.24,4.26,2.76,1.98,4.14,4.72,4.14,8.22,0,4.2-2.04,7.43-6.12,9.68-4.08,2.26-9.93,3.38-17.55,3.38-8.32,0-14.74-1.26-19.25-3.79-4.51-2.53-7.31-6.39-8.4-11.61h-14.23c1.87,17.96,15.78,26.94,41.76,26.94,12.13,0,21.52-2.16,28.17-6.47,6.65-4.32,9.97-10.36,9.97-18.14,0-7.07-2.33-12.62-7-16.62Z"/></svg>